<svg xmlns="http://www.w3.org/2000/svg" viewBox="0 0 146.44 146.79"><defs><style>.cls-1{fill:#1f2853;}.cls-2{fill:#ba0c0c;}.cls-3{fill:#171717;}</style></defs><g id="Layer_2" data-name="Layer 2"><g id="Layer_1-2" data-name="Layer 1"><path class="cls-1" d="M83,47.41h0A16.36,16.36,0,0,0,66.64,63.77h0a16.3,16.3,0,0,0,1.75,7.37,6.59,6.59,0,0,1-1.16,7.51L64,82a1.2,1.2,0,0,1-1,.36h-.25a3.33,3.33,0,0,0-1.14.2,1.2,1.2,0,0,1-1.1-.14l-3.78-2.68a5.17,5.17,0,0,1-2.19-4.62c0-.22,0-.45,0-.67h0a7.39,7.39,0,1,0-14.77,0h0a7.38,7.38,0,0,0,7.39,7.38,7.28,7.28,0,0,0,3-.63,5.25,5.25,0,0,1,5.19.49L59,84.2a1.16,1.16,0,0,1,.46,1.12,3.88,3.88,0,0,0,0,.48,3.73,3.73,0,0,0,0,.47,1.21,1.21,0,0,1-.32,1l-1.59,1.67a4.18,4.18,0,0,1-4.7.92,11.41,11.41,0,0,0-4.64-1h0a11.61,11.61,0,0,0-11.61,11.61h0a11.61,11.61,0,0,0,11.61,11.61h0a11.61,11.61,0,0,0,11.61-11.61h0a11.43,11.43,0,0,0-1.26-5.25,4.11,4.11,0,0,1,.71-4.67l1.14-1.21a1.17,1.17,0,0,1,1.25-.3,3.35,3.35,0,0,0,1.19.21,3.52,3.52,0,0,0,1.59-.38,1.22,1.22,0,0,1,1.26.1l5.23,3.72a5.29,5.29,0,0,1,2.21,5.14A10.42,10.42,0,0,0,73,99.39h0a9.77,9.77,0,0,0,9.77,9.77h0a9.76,9.76,0,0,0,9.76-9.77h0a9.76,9.76,0,0,0-9.76-9.76h0a9.75,9.75,0,0,0-4.83,1.27,5.29,5.29,0,0,1-5.71-.22l-5.42-3.84a1.27,1.27,0,0,1-.53-1h0A3.36,3.36,0,0,0,66,84.45a1.17,1.17,0,0,1,.23-1.27L69,80.28a6.6,6.6,0,0,1,7.42-1.55A16.29,16.29,0,0,0,83,80.13h0A16.36,16.36,0,0,0,99.36,63.77h0A16.35,16.35,0,0,0,83,47.41Z"/><polygon class="cls-2" points="146.4 0 146.4 73.2 128.1 73.2 128.1 18.3 73.2 18.3 73.2 0 146.4 0"/><polygon class="cls-3" points="73.2 128.1 73.2 146.4 0 146.4 0 73.2 18.3 73.2 18.3 128.1 73.2 128.1"/><path class="cls-1" d="M26.68,27.26,25.07,23q-1.76-4.5-1.91-4.86l-2.48-5.54c-1.76-4-3.45-5.95-5.07-5.95q-3.67,0-5.8,6.88c-1-.38-1.55-.93-1.55-1.65q0-3.21,3.72-7.35T18.65.41q5.78,0,12,16.66l1.07,2.74,1.19-1.91Q43.9.41,51.46.41a11.9,11.9,0,0,1,4.6,1.14L49.8,8.12A7.5,7.5,0,0,0,48,7.76q-5.7,0-13.57,13.09L33,23.36l1.18,3.18Q41,45.32,45.37,45.32q4.07,0,6.19-5.8c1,.62,1.45,1.26,1.45,1.92q0,2.58-4.14,6.2c-2.76,2.42-5.14,3.62-7.14,3.62q-6,0-12.26-16.91L28,30.52l-1.5,2.64Q16,51.27,6.35,51.26A10.35,10.35,0,0,1,.19,49.47l6-5.86a5,5,0,0,0,3.62,1.55q5.85,0,13.14-11.83L25.64,29Z"/><path class="cls-1" d="M123.8,103.28l-2.5,22.87c-.45,4.11-.68,7.14-.68,9.11,0,3.89,1.33,5.84,4,5.84q4.29,0,8.87-7a3,3,0,0,1,.78,1.75q0,2.91-5.1,6.94t-8.77,4q-7.35,0-7.34-9.41,0-3.47.87-11.23l2.49-22.87H105.52l6-6h5.51l1.1-9.41,7.62-2.54-1.26,12h21.93l-6.06,6Z"/></g></g></svg>